<svg width="100" height="26" viewBox="0 0 100 26" fill="none" xmlns="http://www.w3.org/2000/svg">
<path d="M45.8649 21.652C42.538 21.652 40.3071 19.4126 40.3071 16.062C40.3071 12.7114 42.538 10.4873 45.8649 10.4873C49.1918 10.4873 51.4041 12.725 51.4041 16.062C51.4041 19.3991 49.1731 21.652 45.8649 21.652ZM45.8734 6.28125C39.6787 6.28125 35.5234 10.2027 35.5234 16.0485C35.5234 21.9298 39.6787 25.8513 45.8734 25.8513C52.0325 25.8513 56.186 21.9298 56.186 16.0485C56.186 10.2027 52.0325 6.28125 45.8734 6.28125Z" fill="white"/>
<path d="M11.7525 6.32435C11.8789 6.323 12.0007 6.3718 12.0912 6.46006C12.1817 6.54833 12.2335 6.66887 12.2353 6.79527V10.4965C12.2335 10.5879 12.1979 10.6754 12.1353 10.7421C12.0727 10.8087 11.9876 10.8498 11.8965 10.8573C11.1037 10.9031 9.08286 10.4762 7.43636 11.1453C6.88218 11.4065 6.3947 11.7904 6.01083 12.2679C5.62696 12.7454 5.35676 13.304 5.2207 13.9013C4.99541 14.872 5.01743 22.9639 5.02759 25.0135C5.02693 25.076 5.01396 25.1378 4.98942 25.1953C4.96488 25.2528 4.92926 25.3049 4.88459 25.3486C4.83992 25.3924 4.78707 25.4269 4.72906 25.4502C4.67105 25.4735 4.60902 25.4851 4.54651 25.4844H0.481076C0.418567 25.4851 0.356538 25.4735 0.29853 25.4502C0.240523 25.4269 0.187675 25.3924 0.143002 25.3486C0.098329 25.3049 0.0627064 25.2528 0.0381701 25.1953C0.0136338 25.1378 0.000663799 25.076 0 25.0135V7.21028C0.000663047 7.14029 0.0151358 7.07111 0.0425874 7.00672C0.070039 6.94233 0.10993 6.88399 0.159973 6.83505C0.210017 6.78611 0.269228 6.74752 0.334213 6.72151C0.399198 6.6955 0.468679 6.68257 0.538671 6.68347H4.32122C4.45932 6.682 4.59261 6.73412 4.69307 6.8289C4.79352 6.92367 4.85332 7.0537 4.85989 7.19165L4.88361 8.26052C4.88611 8.32299 4.90948 8.38281 4.94999 8.43043C4.9905 8.47805 5.0458 8.51072 5.10706 8.5232C5.16832 8.53569 5.232 8.52728 5.28791 8.49931C5.34383 8.47134 5.38875 8.42544 5.4155 8.36893C5.81866 7.52196 6.43186 6.76308 7.1467 6.50561C7.5131 6.37741 7.89854 6.31212 8.28672 6.3125L11.7525 6.32435Z" fill="white"/>
<path d="M33.6086 13.8615V25.0161C33.6079 25.0787 33.5949 25.1406 33.5702 25.1982C33.5456 25.2558 33.5098 25.308 33.465 25.3518C33.4201 25.3955 33.3671 25.43 33.3089 25.4532C33.2507 25.4764 33.1884 25.4879 33.1258 25.487H29.0604C28.9339 25.4883 28.8122 25.4395 28.7217 25.3513C28.6312 25.263 28.5794 25.1425 28.5776 25.0161V14.6577C28.5776 12.1269 26.7295 10.4635 23.9176 10.4635H21.004C20.7772 10.4608 20.5521 10.5029 20.3415 10.5872C20.1309 10.6716 19.9391 10.7967 19.7769 10.9552C19.6147 11.1138 19.4853 11.3028 19.3962 11.5114C19.3071 11.72 19.26 11.9441 19.2576 12.171V25.0161C19.2569 25.0787 19.2439 25.1406 19.2192 25.1982C19.1946 25.2558 19.1588 25.308 19.114 25.3518C19.0691 25.3955 19.0161 25.43 18.9579 25.4532C18.8997 25.4764 18.8374 25.4879 18.7748 25.487H14.7094C14.583 25.4883 14.4612 25.4395 14.3707 25.3513C14.2802 25.263 14.2284 25.1425 14.2266 25.0161V0.470941C14.2284 0.344544 14.2802 0.224008 14.3707 0.135739C14.4612 0.0474726 14.583 -0.00132944 14.7094 2.75607e-05H18.7748C18.9012 -0.00132944 19.023 0.0474726 19.1135 0.135739C19.204 0.224008 19.2558 0.344544 19.2576 0.470941V5.79667C19.2589 5.92306 19.3103 6.04378 19.4005 6.13236C19.4906 6.22094 19.6122 6.27017 19.7386 6.26927H25.6962C30.4392 6.28621 33.6086 9.31835 33.6086 13.8598" fill="white"/>
<path d="M73.5615 16.5397C73.5615 19.3449 71.2357 21.6215 68.3662 21.6215C65.4966 21.6215 63.1726 19.3483 63.1726 16.5397V15.5928C63.1726 12.7877 65.4983 10.511 68.3662 10.511H71.9522C72.1611 10.5086 72.3684 10.5473 72.5624 10.6249C72.7563 10.7026 72.933 10.8177 73.0824 10.9637C73.2319 11.1097 73.3511 11.2836 73.4333 11.4757C73.5155 11.6678 73.559 11.8741 73.5615 12.083V16.5397ZM77.7268 0.000169244H74.4186C74.3059 -0.00208276 74.194 0.0181592 74.0893 0.0597132C73.9845 0.101268 73.8892 0.163297 73.8087 0.24217C73.7283 0.321044 73.6644 0.415176 73.6207 0.519054C73.5771 0.622934 73.5547 0.73447 73.5547 0.847135V5.62741C73.5507 5.80968 73.475 5.98303 73.344 6.10987C73.2131 6.23671 73.0374 6.30681 72.8551 6.30498H67.5311C67.5209 6.30498 67.5107 6.30498 67.4989 6.30498C62.0986 6.30498 57.957 10.3908 57.957 16.5025C57.957 22.5041 62.0986 25.836 67.4989 25.836C69.7128 25.836 71.5135 25.1957 72.8568 24.0676C73.4124 23.6 73.5344 23.9422 73.5615 24.6571C73.5818 25.111 73.636 25.4735 74.5558 25.4735H77.7268C77.8395 25.4758 77.9514 25.4555 78.0562 25.414C78.1609 25.3724 78.2563 25.3104 78.3367 25.2315C78.4172 25.1527 78.4811 25.0585 78.5247 24.9546C78.5683 24.8508 78.5908 24.7392 78.5907 24.6266V0.847135C78.5908 0.73447 78.5683 0.622934 78.5247 0.519054C78.4811 0.415176 78.4172 0.321044 78.3367 0.24217C78.2563 0.163297 78.1609 0.101268 78.0562 0.0597132C77.9514 0.0181592 77.8395 -0.00208276 77.7268 0.000169244Z" fill="white"/>
<path d="M90.2671 10.4794C92.3506 10.4794 94.4206 11.7447 94.5188 13.7199C94.5191 13.7391 94.5155 13.7581 94.5082 13.7759C94.501 13.7937 94.4903 13.8098 94.4767 13.8234C94.4631 13.8369 94.447 13.8477 94.4292 13.8549C94.4114 13.8621 94.3924 13.8658 94.3732 13.8655H86.0255C86.0063 13.866 85.9872 13.8626 85.9694 13.8554C85.9516 13.8482 85.9355 13.8375 85.922 13.8238C85.9085 13.8102 85.8979 13.7939 85.891 13.776C85.884 13.7581 85.8808 13.739 85.8815 13.7199C85.9865 11.7854 88.1734 10.4794 90.2671 10.4794ZM99.1246 17.7633C99.3281 17.7672 99.5257 17.6953 99.6791 17.5617C99.8325 17.428 99.9307 17.242 99.9547 17.04C99.9852 16.7181 100 16.3889 100 16.0524C100 10.1999 96.2196 6.2767 90.2586 6.28517C84.5348 6.29364 80.3999 10.5471 80.4338 16.1439C80.4745 21.9744 84.318 25.8552 90.2722 25.8552C94.551 25.8552 97.5815 23.8225 99.0806 20.4973C99.1095 20.426 99.1203 20.3486 99.1119 20.2722C99.1036 20.1957 99.0763 20.1225 99.0326 20.0592C98.989 19.9959 98.9302 19.9444 98.8617 19.9094C98.7932 19.8744 98.7171 19.8569 98.6402 19.8587H94.3325C94.1657 19.8625 94.0013 19.9 93.8493 19.969C93.6974 20.038 93.5609 20.137 93.4483 20.2601C92.5928 21.1427 91.6646 21.6559 90.2688 21.6559C87.838 21.6559 85.8764 20.1619 85.8764 17.7599L99.1246 17.7633Z" fill="white"/>
</svg>
