<svg width="196" height="56" viewBox="0 0 196 56" fill="none" xmlns="http://www.w3.org/2000/svg">
<path d="M0 8.9545V0H31.978V8.9545H23.6478C19.7189 9.02871 20.4152 4.79882 18.6994 2.5973C17.8788 1.65733 16.9339 1.23681 16.0139 1.23681C14.1986 1.23681 12.4829 2.81993 12.1099 5.14513C11.3887 10.216 16.7101 10.2903 20.2411 10.8097L31.978 12.6897V21.6442H0V12.6897H8.35506C12.2591 12.6155 11.5628 16.8453 13.2786 19.0469C14.1986 19.9868 15.069 20.4321 15.9393 20.4321C16.735 20.4321 17.5307 20.0858 18.3762 19.4179C20.8131 17.1174 20.2909 12.1207 16.5609 11.5765L11.7369 10.8097C11.7369 10.8345 0 8.9545 0 8.9545ZM33.8179 0H65.7959V4.5762H55.9489V21.6442H43.665V4.5762H33.8179V0ZM67.2813 11.2797V0H79.5651V16.6475C79.5651 18.6758 81.2312 20.3579 83.2951 20.3579C83.4194 20.3579 83.5189 20.3332 83.6432 20.3332C85.5579 20.1353 86.9753 18.4285 86.9753 16.499V0H99.2592V11.2797C99.2592 16.9938 94.6092 21.6442 88.8402 21.6442H77.7002C71.9561 21.6442 67.2813 16.9938 67.2813 11.2797ZM114.569 4.99671V16.6475C114.544 19.0469 116.409 20.2342 118.274 20.2342C120.139 20.2342 122.028 19.0469 121.979 16.6475V4.99671C122.028 2.5973 120.139 1.38523 118.274 1.38523C116.409 1.38523 114.544 2.5973 114.569 4.99671ZM123.396 21.6442H102.285V0H123.396C137.62 0.0494731 137.62 21.57 123.396 21.6442ZM148.905 21.6442H136.621V0H148.905V21.6442ZM172.548 21.8668C170.808 21.9163 168.968 21.9905 167.103 21.9905C159.518 21.9905 151.81 20.6795 151.437 11.0323C151.785 1.38523 159.494 0.0989448 167.103 0.0989448C168.968 0.0989448 170.808 0.173154 172.548 0.222626C186.772 0.272099 186.772 21.7926 172.548 21.8668ZM162.851 8.63293C158.549 15.8559 160.19 20.3579 163.646 20.3579C166.009 20.3579 169.241 18.2553 172.001 13.4565C176.303 6.23352 174.662 1.7068 171.206 1.7068C168.843 1.7068 165.611 3.83411 162.851 8.63293ZM0 44.844C0 38.8578 4.87378 34.0095 10.8666 34.0095H21.1115C26.8556 34.0095 31.5553 38.462 31.9531 44.1019H24.8165C22.0066 44.1019 19.6941 41.8262 19.6941 39.0062C19.6941 36.9779 18.0529 35.2958 15.9641 35.2958C15.8398 35.2958 15.7403 35.3205 15.616 35.3205C13.7013 35.5184 12.2839 37.2252 12.2839 39.1547V50.657C12.2839 52.6853 13.95 54.3674 16.0139 54.3674C16.1382 54.3674 16.2377 54.3427 16.362 54.3427C18.2767 54.1448 19.6941 52.438 19.6941 50.5086C19.6941 48.406 21.4099 46.6992 23.5235 46.6992H31.8039C30.9336 51.7701 26.4826 55.6537 21.1115 55.6537H10.8914C4.87377 55.6537 0 50.8054 0 44.844ZM54.551 55.8763C52.8104 55.9258 50.9703 56 49.1053 56C41.5211 56 33.8126 54.689 33.4396 45.0419C33.7877 35.3947 41.4963 34.1085 49.1053 34.1085C50.9703 34.1085 52.8104 34.1827 54.551 34.2321C68.7746 34.2816 68.7746 55.8021 54.551 55.8763ZM44.8532 42.6425C40.5513 49.8654 42.1925 54.3674 45.6489 54.3674C48.0112 54.3674 51.2438 52.2648 54.004 47.466C58.3059 40.243 56.6647 35.7163 53.2083 35.7163C50.846 35.7163 47.6134 37.8436 44.8532 42.6425ZM80.0334 38.8826V50.5333C80.0086 52.9327 81.8736 54.12 83.7385 54.12C85.6035 54.12 87.4933 52.9327 87.4436 50.5333V38.8826C87.4933 36.4831 85.6035 35.2711 83.7385 35.2711C81.8736 35.2711 80.0086 36.4831 80.0334 38.8826ZM88.7864 55.53H67.7495V33.8858H90.1291C91.1487 33.8858 92.2179 33.8364 93.2374 33.8364C93.7596 33.8364 94.2818 33.8611 94.804 33.8858C97.216 34.0343 98.9318 35.7411 99.454 38.0415C99.7773 39.4515 99.6281 41.0346 98.8821 42.2714C98.1609 43.4835 96.6441 44.6956 95.177 44.6956C95.5251 44.745 95.8732 44.844 96.1965 44.9429C98.4842 45.7097 99.7275 47.9855 99.6032 50.3107C99.4789 52.6606 98.0615 54.689 95.7738 55.3569C95.2765 55.5053 94.7045 55.53 94.1326 55.53C93.5856 55.53 93.0136 55.5053 92.4914 55.5053C91.2481 55.5053 90.0297 55.5053 88.7864 55.53ZM101.403 55.6537L105.108 34.0095H129.676L133.381 55.6537H121.097L119.705 47.4165H115.105L113.687 55.6537H101.403ZM117.392 34.0095L115.527 44.8192H119.257L117.392 34.0095ZM164.987 55.6537H135.719V34.0095H148.003V54.3427C148.525 54.4169 149.023 54.4664 149.446 54.4664C155.04 54.4664 153.374 48.0349 159.044 47.8865H167.623L164.987 55.6537ZM164.022 34.0095H196V38.5857H186.153V55.6537H173.869V38.5857H164.022V34.0095Z" fill="#F9F9F9"/>
</svg>
