<svg width="150" height="18" viewBox="0 0 150 18" fill="none" xmlns="http://www.w3.org/2000/svg">
<path d="M0 8.93973C0 4.07812 3.72994 0.140624 8.31624 0.140624H16.1567C20.5527 0.140624 24.1494 3.7567 24.4539 8.33705H18.9922C16.8418 8.33705 15.072 6.48884 15.072 4.19866C15.072 2.55134 13.816 1.18527 12.2175 1.18527C12.1223 1.18527 12.0462 1.20536 11.951 1.20536C10.4857 1.36607 9.40097 2.75223 9.40097 4.3192V13.6607C9.40097 15.308 10.676 16.6741 12.2555 16.6741C12.3507 16.6741 12.4268 16.654 12.5219 16.654C13.9873 16.4933 15.072 15.1071 15.072 13.5402C15.072 11.8326 16.3851 10.4464 18.0027 10.4464H24.3397C23.6737 14.5647 20.2673 17.7187 16.1567 17.7187H8.33526C3.72993 17.7187 0 13.7812 0 8.93973ZM41.7483 17.8996C40.4161 17.9397 39.0079 18 37.5806 18C31.7764 18 25.877 16.9353 25.5915 9.10044C25.8579 1.26563 31.7573 0.220982 37.5806 0.220982C39.0079 0.220982 40.4161 0.28125 41.7483 0.321428C52.6336 0.361607 52.6336 17.8393 41.7483 17.8996ZM34.3264 7.15178C31.0342 13.0179 32.2902 16.6741 34.9354 16.6741C36.7433 16.6741 39.2172 14.9665 41.3296 11.0692C44.6218 5.20312 43.3658 1.52679 40.7206 1.52679C38.9127 1.52679 36.4388 3.25446 34.3264 7.15178ZM61.2501 4.09821V13.5603C61.2311 15.5089 62.6583 16.4732 64.0856 16.4732C65.5129 16.4732 66.9592 15.5089 66.9211 13.5603V4.09821C66.9592 2.14955 65.5129 1.16518 64.0856 1.16518C62.6583 1.16518 61.2311 2.14955 61.2501 4.09821ZM67.9488 17.6183H51.8491V0.040178H68.9764C69.7566 0.040178 70.5749 0 71.3552 0C71.7548 0 72.1544 0.0200887 72.5541 0.040178C74.4 0.160715 75.7131 1.54688 76.1128 3.41518C76.3601 4.56027 76.246 5.84598 75.675 6.85045C75.1232 7.83482 73.9623 8.8192 72.8395 8.8192C73.106 8.85937 73.3724 8.93973 73.6198 9.02009C75.3706 9.64286 76.3221 11.4911 76.2269 13.3795C76.1318 15.2879 75.0471 16.9353 73.2963 17.4777C72.9157 17.5982 72.478 17.6183 72.0403 17.6183C71.6216 17.6183 71.1839 17.5982 70.7843 17.5982C69.8328 17.5982 68.9003 17.5982 67.9488 17.6183ZM77.6045 17.7187L80.44 0.140624H99.242L102.077 17.7187H92.6765L91.6108 11.029H88.0902L87.0055 17.7187H77.6045ZM89.841 0.140624L88.4137 8.91964H91.2683L89.841 0.140624ZM126.266 17.7187H103.867V0.140624H113.268V16.654C113.667 16.7143 114.048 16.7545 114.372 16.7545C118.653 16.7545 117.378 11.5312 121.717 11.4107H128.283L126.266 17.7187ZM125.527 0.140624H150V3.85714H142.464V17.7187H133.063V3.85714H125.527V0.140624Z" fill="#F9F9F9"/>
</svg>
