<svg width="121" height="16" viewBox="0 0 121 16" fill="none" xmlns="http://www.w3.org/2000/svg">
<path d="M59.7014 6.4321H52.1026V0.481481H49.8036V15.5926H52.1026V8.4321H59.7014V15.5926H61.9762V0.481481H59.7014M37.2801 0.432099C36.4452 0.407407 34.7512 0.407406 33.2508 0.407406V15.5803H35.574V9.82716C36.1548 9.82716 37.3527 9.77778 38.3207 9.75309C39.6759 9.7284 43.2091 9.03704 43.1849 4.87654C43.2212 0.185185 38.1271 0.432099 37.2801 0.432099ZM37.1591 7.81481H35.6224V2.34568H36.9292C37.5342 2.34568 41.1037 2.07407 41.2126 4.90123C41.3578 7.67901 38.5385 7.81481 37.1591 7.81481ZM15.8389 0.407406L15.8631 15.5803H25.1922V13.6049H18.1863V8.45679H23.1473C23.1473 8.02469 23.1231 7.39506 23.1473 6.5679H18.1863V2.4321H25.1922C25.168 1.23457 25.1922 0.407406 25.1922 0.407406H15.8389ZM2.2748 4.11111C2.2748 1.62963 5.4934 1.53086 7.3931 3.12346C8.0465 1.20988 8.0949 1.07407 8.0949 1.07407C2.5531 -1.64198 0.0242 1.95062 0.0242 4.24691C0.0242 9.74074 7.6593 8.5679 6.5582 12.4321C6.171 13.8395 3.7147 14.642 0.8833 12.8889C0.6776 13.4815 0.3388 14.1975 0 14.9136C3.7389 16.9136 8.591 15.9506 8.7483 11.8272C8.9661 6.64197 2.2748 7.01235 2.2748 4.11111ZM100.333 4.66667C99.9944 0.160492 95.711 0.506171 94.7672 0.456788C93.9807 0.432097 92.3109 0.407406 90.871 0.407406V15.5556H93.1942V9.18519C93.9807 9.18519 94.2348 9.18519 95.4206 9.1358L99.6556 15.5556H102.475L97.7922 8.74074C99.0506 8.2716 100.515 7.17284 100.333 4.66667ZM94.6341 7.40741C94.1138 7.40741 93.7145 7.40741 93.1942 7.38272V2.25926H94.4163C94.9971 2.25926 98.0463 2.07407 98.3125 4.55556C98.6392 7.49383 95.2633 7.40741 94.6341 7.40741ZM115.664 0.432099H112.978L108.114 15.6049H110.412C111.138 12.8642 111.381 12.0864 111.381 12.0864L117.394 12.0617C118.096 14.0864 118.616 15.6296 118.616 15.6296H121L115.664 0.432099ZM111.913 10.3457L114.26 2.85185H114.285L116.741 10.321L111.913 10.3457ZM76.3994 0C71.6683 0 68.5828 3.5679 68.5828 8C68.5828 12.4321 71.6683 16 76.3994 16C81.1305 16 84.216 12.4321 84.216 8C84.216 3.5679 81.1305 0 76.3994 0ZM76.3994 13.8148C72.9267 13.8148 70.9665 11.2346 70.9665 8C70.9665 4.80247 72.9267 2.18518 76.3994 2.18518C79.8479 2.18518 81.8323 4.76543 81.8323 8C81.8323 11.1975 79.8721 13.8148 76.3994 13.8148Z" fill="white"/>
</svg>
